<?xml version="1.0" encoding="UTF-8"?>
<svg width="97px" height="24px" viewBox="0 0 97 24" version="1.1" xmlns="http://www.w3.org/2000/svg" xmlns:xlink="http://www.w3.org/1999/xlink">
    <!-- Generator: Sketch 55.2 (78181) - https://sketchapp.com -->
    <title>appditto-logo</title>
    <desc>Created with Sketch.</desc>
    <g id="Page-1" stroke="none" stroke-width="1" fill="none" fill-rule="evenodd">
        <g id="Desktop-HD" transform="translate(-768.000000, -4942.000000)" fill="#ffffff">
            <g id="Group-14" transform="translate(575.000000, 4878.000000)">
                <g id="Group-20" transform="translate(0.500000, 64.000000)">
                    <g id="logo-v2" transform="translate(193.000000, 0.000000)">
                        <path d="M21.9408598,4.29472032 C22.4011796,4.29502608 22.8318479,4.52258374 23.0924068,4.90317782 C23.3529657,5.28377191 23.4100172,5.76861852 23.2449546,6.19959018 L16.7766442,23.100667 C16.5693883,23.6422191 16.0509229,23.9997644 15.4725493,24 L6.32354149,24 C5.86325919,24 5.4325534,23.7724468 5.17196718,23.3919174 C4.91138095,23.0113879 4.85433602,22.526566 5.01944664,22.0956533 L5.5770776,20.6370493 L11.2446738,20.6370493 C11.8230862,20.6364333 12.3414379,20.2787584 12.5487687,19.7371932 L18.4589265,4.29472032 L21.9408598,4.29472032 Z M11.8497738,18.8028077 C11.6430582,19.3455401 11.1239152,19.7042333 10.5446357,19.7042333 L1.39667115,19.7042333 C0.936619683,19.7037957 0.506231483,19.4763778 0.245727211,19.0960725 C-0.0147770607,18.7157672 -0.0720468729,18.2312624 0.0925763035,17.8004098 L6.56088676,0.899332955 C6.76814265,0.357780924 7.28660805,0.000235591324 7.86498161,-7.10542736e-14 L17.0139894,-7.10542736e-14 C17.4742717,-7.10542736e-14 17.9049775,0.22755316 18.1655637,0.608082625 C18.42615,0.98861209 18.4831949,1.47343397 18.3180843,1.90434669 L11.8497738,18.8028077 Z M3.34238067,11.9084449 L2.64495074,13.7311767 L16.5205199,3.9886646 L17.2189931,2.16279374 L3.34238067,11.9084449 Z M1.73521418,18.7682783 L10.3829279,18.7661856 C10.6725639,18.7658534 10.9320403,18.5865356 11.035497,18.3152112 L15.8225684,5.81139643 L1.94699918,15.5560012 L1.08316675,17.8150586 C1.00084051,18.0306326 1.0294337,18.2730206 1.1596451,18.4633749 C1.28985651,18.6537293 1.50504624,18.7677244 1.73521418,18.7682783 Z M35.5398621,19.689931 L34.4656552,16.7404138 L29.222069,16.7404138 L28.1478621,19.689931 L25.4896552,19.689931 L30.441931,6.78124138 L33.3550345,6.78124138 L38.2708966,19.689931 L35.5398621,19.689931 Z M31.8438621,9.56689655 L30.0595862,14.4463448 L33.6281379,14.4463448 L31.8438621,9.56689655 Z M41.5845522,23.1492414 L39.163035,23.1492414 L39.163035,10.7321379 L41.5117246,10.7321379 L41.5117246,11.8245517 C41.9122764,11.1326897 42.9136557,10.5318621 44.260966,10.5318621 C46.8827591,10.5318621 48.3939315,12.5346207 48.3939315,15.1928276 C48.3939315,17.9056552 46.7006902,19.9084138 44.1699315,19.9084138 C42.9318626,19.9084138 42.0215177,19.4168276 41.5845522,18.816 L41.5845522,23.1492414 Z M46.0088281,15.2110345 C46.0088281,13.6270345 45.0256557,12.6984828 43.7875867,12.6984828 C42.5495177,12.6984828 41.5481384,13.6270345 41.5481384,15.2110345 C41.5481384,16.7950345 42.5495177,17.7417931 43.7875867,17.7417931 C45.0256557,17.7417931 46.0088281,16.8132414 46.0088281,15.2110345 Z M52.0154493,23.1492414 L49.593932,23.1492414 L49.593932,10.7321379 L51.9426217,10.7321379 L51.9426217,11.8245517 C52.3431734,11.1326897 53.3445527,10.5318621 54.6918631,10.5318621 C57.3136562,10.5318621 58.8248286,12.5346207 58.8248286,15.1928276 C58.8248286,17.9056552 57.1315872,19.9084138 54.6008286,19.9084138 C53.3627596,19.9084138 52.4524148,19.4168276 52.0154493,18.816 L52.0154493,23.1492414 Z M56.4397251,15.2110345 C56.4397251,13.6270345 55.4565527,12.6984828 54.2184838,12.6984828 C52.9804148,12.6984828 51.9790355,13.6270345 51.9790355,15.2110345 C51.9790355,16.7950345 52.9804148,17.7417931 54.2184838,17.7417931 C55.4565527,17.7417931 56.4397251,16.8132414 56.4397251,15.2110345 Z M69.0604153,6.50813793 L69.0604153,18.0695172 C69.0604153,18.6703448 69.0968291,19.3257931 69.1332429,19.689931 L66.820967,19.689931 C66.7845532,19.5078621 66.7299325,19.0708966 66.7299325,18.6521379 C66.3293808,19.3622069 65.419036,19.9084138 64.2173808,19.9084138 C61.6684153,19.9084138 59.8477256,17.9056552 59.8477256,15.1928276 C59.8477256,12.5710345 61.6137946,10.5136552 64.1445532,10.5136552 C65.6921394,10.5136552 66.4204153,11.1508966 66.6753118,11.6242759 L66.6753118,6.50813793 L69.0604153,6.50813793 Z M62.2874498,15.1928276 C62.2874498,16.7950345 63.2342084,17.7417931 64.5086911,17.7417931 C65.7467601,17.7417931 66.7117256,16.7950345 66.7117256,15.1746207 C66.7117256,13.5724138 65.7467601,12.6802759 64.5086911,12.6802759 C63.2706222,12.6802759 62.2874498,13.5906207 62.2874498,15.1928276 Z M73.0609675,19.689931 L70.6394503,19.689931 L70.6394503,10.7321379 L73.0609675,10.7321379 L73.0609675,19.689931 Z M79.8885542,10.7321379 L80.265934,10.7321379 C81.2126926,10.7321379 81.6496582,10.1131034 81.6496582,9.312 L81.6496582,8.05572414 L83.8344857,8.05572414 L83.8344857,10.7321379 L85.6369685,10.7321379 L85.6369685,12.8805517 L83.8344857,12.8805517 L83.8344857,16.6311724 C83.8344857,17.414069 84.1986237,17.6689655 84.8904857,17.6689655 C85.1817961,17.6689655 85.5095202,17.6325517 85.6369685,17.5961379 L85.6369685,19.5988966 C85.4184857,19.689931 84.9815202,19.8173793 84.2714513,19.8173793 C82.5235892,19.8173793 81.4311754,18.7795862 81.4311754,17.049931 L81.4311754,12.8805517 L79.8885542,12.8805517 L78.0860714,12.8805517 L78.0860714,16.6311724 C78.0860714,17.414069 78.4502094,17.6689655 79.1420714,17.6689655 C79.4333818,17.6689655 79.7611059,17.6325517 79.8885542,17.5961379 L79.8885542,19.5988966 C79.6700714,19.689931 79.2331059,19.8173793 78.523037,19.8173793 C76.7751749,19.8173793 75.6827611,18.7795862 75.6827611,17.049931 L75.6827611,12.8805517 L74.0623473,12.8805517 L74.0623473,10.7321379 L74.5175197,10.7321379 C75.4642783,10.7321379 75.9012439,10.1131034 75.9012439,9.312 L75.9012439,8.05572414 L78.0860714,8.05572414 L78.0860714,10.7321379 L79.8885542,10.7321379 Z M91.0808311,17.76 C92.2642793,17.76 93.3566931,16.9042759 93.3566931,15.2110345 C93.3566931,13.5177931 92.2642793,12.662069 91.0808311,12.662069 C89.8973828,12.662069 88.804969,13.5177931 88.804969,15.2110345 C88.804969,16.886069 89.8973828,17.76 91.0808311,17.76 Z M91.0808311,10.4590345 C93.7572449,10.4590345 95.7782104,12.4435862 95.7782104,15.2110345 C95.7782104,17.9602759 93.7572449,19.9630345 91.0808311,19.9630345 C88.4044173,19.9630345 86.3834518,17.9602759 86.3834518,15.2110345 C86.3834518,12.4435862 88.4044173,10.4590345 91.0808311,10.4590345 Z M70.3481399,7.80082759 C70.3481399,6.96331034 71.0217951,6.28965517 71.8411054,6.28965517 C72.6786227,6.28965517 73.334071,6.96331034 73.334071,7.80082759 C73.334071,8.60193103 72.6786227,9.27558621 71.8411054,9.27558621 C71.0217951,9.27558621 70.3481399,8.60193103 70.3481399,7.80082759 Z" id="appditto-logo"></path>
                    </g>
                </g>
            </g>
        </g>
    </g>
</svg>