<svg height="176" viewBox="0 0 1440 176" width="1440" xmlns="http://www.w3.org/2000/svg" xmlns:xlink="http://www.w3.org/1999/xlink"><linearGradient id="a"><stop offset="0" stop-color="#fcc642"/><stop offset="1" stop-color="#f7941f"/></linearGradient><linearGradient id="b" x1="100%" x2="0%" xlink:href="#a" y1="49.253086%" y2="50.746914%"/><linearGradient id="c" x1="100%" x2="0%" xlink:href="#a" y1="0%" y2="100%"/><g fill="none" fill-rule="evenodd"><path d="m0 0h1440v176h-1440z" fill="url(#b)"/><g stroke="url(#c)"><circle cx="790.5" cy="98.5" r="39.9" stroke-width="7.2"/><path d="m481.355512 42.0970055c-2.12934-2.1293407-5.581684-2.1293407-7.711024 0l-23.547482 23.5474821c-2.129341 2.1293407-2.129341 5.5816841 0 7.7110248l23.547482 23.5474821c2.12934 2.1293407 5.581684 2.1293407 7.711024 0l23.547482-23.5474821c2.129341-2.1293407 2.129341-5.5816841 0-7.7110248z" stroke-width="5"/><path d="m630.4 66.2746134c-3.341532-1.9292342-7.458468-1.9292342-10.8 0l-21.973067 12.6861561c-3.341532 1.9292342-5.4 5.494606-5.4 9.3530744v25.3723121c0 3.858468 2.058468 7.42384 5.4 9.353074l21.973067 12.686157c3.341532 1.929234 7.458468 1.929234 10.8 0l21.973067-12.686157c3.341532-1.929234 5.4-5.494606 5.4-9.353074v-25.3723121c0-3.8584684-2.058468-7.4238402-5.4-9.3530744z" stroke-width="7.2"/><path d="m1069.75 25.0932667c-4.17691-2.4115427-9.32309-2.4115427-13.5 0l-27.03332 15.6076952c-4.17692 2.4115427-6.75 6.8682575-6.75 11.6913429v31.2153904c0 4.8230854 2.57308 9.2798002 6.75 11.6913429l27.03332 15.6076949c4.17691 2.411543 9.32309 2.411543 13.5 0l27.03332-15.6076949c4.17692-2.4115427 6.75-6.8682575 6.75-11.6913429v-31.2153904c0-4.8230854-2.57308-9.2798002-6.75-11.6913429z" stroke-width="9"/></g></g></svg>