<svg height="1729" viewBox="0 0 1440 1729" width="1440" xmlns="http://www.w3.org/2000/svg" xmlns:xlink="http://www.w3.org/1999/xlink"><linearGradient id="a"><stop offset="0" stop-color="#21212b"/><stop offset="1" stop-color="#14141a"/></linearGradient><linearGradient id="b" x1="100%" x2="0%" xlink:href="#a" y1="0%" y2="100%"/><linearGradient id="c" x1="100%" x2="0%" xlink:href="#a" y1="17.23356%" y2="82.76644%"/><linearGradient id="d" x1="100%" x2="0%" xlink:href="#a" y1="17.042447%" y2="82.957553%"/><g fill="none" fill-rule="evenodd"><path d="m0 0h1440v1729h-1440z" fill="#16161c"/><g stroke="url(#b)"><circle cx="790.5" cy="815.5" r="39.9" stroke-width="7.2"/><path d="m471.355512 589.097006c-2.12934-2.129341-5.581684-2.129341-7.711024 0l-23.547482 23.547482c-2.129341 2.12934-2.129341 5.581684 0 7.711024l23.547482 23.547482c2.12934 2.129341 5.581684 2.129341 7.711024 0l23.547482-23.547482c2.129341-2.12934 2.129341-5.581684 0-7.711024z" stroke-width="5"/><path d="m1089.30028 232.230983c-4.30797-4.307977-11.29259-4.307977-15.60056 0l-47.46874 47.468734c-4.30797 4.307977-4.30797 11.292589 0 15.600566l47.46874 47.468734c4.30797 4.307977 11.29259 4.307977 15.60056 0l47.46874-47.468734c4.30797-4.307977 4.30797-11.292589 0-15.600566z" stroke-width="10"/><path d="m539.300283 1336.23098c-4.307977-4.30797-11.292589-4.30797-15.600566 0l-47.468734 47.46874c-4.307977 4.30797-4.307977 11.29259 0 15.60056l47.468734 47.46874c4.307977 4.30797 11.292589 4.30797 15.600566 0l47.468734-47.46874c4.307977-4.30797 4.307977-11.29259 0-15.60056z" stroke-width="10"/></g><path d="m399.021734 306c1.243632 0 2.462722-.346133 3.520802-.999653 3.148215-1.944486 4.12403-6.072935 2.179545-9.221149l-42.021734-68.035189c-.547254-.886029-1.293515-1.63229-2.179545-2.179544-3.148214-1.944485-7.276663-.96867-9.221149 2.179544l-42.021734 68.035189c-.65352 1.05808-.999653 2.27717-.999653 3.520802 0 3.700308 2.999692 6.7 6.7 6.7z" stroke="url(#c)" stroke-width="10"/><path d="m1014.24299 1451c.99254 0 1.96558-.27559 2.81071-.79607 2.52059-1.55231 3.30553-4.85405 1.75322-7.37464l-33.742987-54.79059c-.439349-.7134-1.039819-1.31387-1.753218-1.75322-2.520591-1.55232-5.822333-.76738-7.374648 1.75322l-33.742985 54.79059c-.520475.84512-.796067 1.81817-.796067 2.81071 0 2.96025 2.399754 5.36 5.36 5.36z" stroke="url(#d)" stroke-width="8"/><path d="m896.877853 1111.45085c-3.504875-2.54644-8.250831-2.54644-11.755706 0l-37.52772 27.26548c-3.504874 2.54644-4.971455 7.06012-3.632713 11.18034l14.334314 44.11649c1.338743 4.12022 5.178303 6.90983 9.510565 6.90983h46.386814c4.332262 0 8.171822-2.78961 9.510565-6.90983l14.334314-44.11649c1.338742-4.12022-.127839-8.6339-3.632713-11.18034z" stroke="url(#b)" stroke-width="10"/><path d="m635.702282 100.96068c-2.803899-2.0371523-6.600665-2.0371523-9.404564 0l-30.022176 21.812388c-2.8039 2.037152-3.977165 5.64809-2.90617 8.944272l11.46745 35.293184c1.070995 3.296182 4.142643 5.527865 7.608453 5.527865h37.10945c3.46581 0 6.537458-2.231683 7.608453-5.527865l11.46745-35.293184c1.070995-3.296182-.10227-6.90712-2.90617-8.944272z" stroke="url(#b)" stroke-width="8"/><path d="m1069.75 702.093267c-4.17691-2.411543-9.32309-2.411543-13.5 0l-27.03332 15.607695c-4.17692 2.411543-6.75 6.868257-6.75 11.691343v31.21539c0 4.823086 2.57308 9.2798 6.75 11.691343l27.03332 15.607695c4.17691 2.411543 9.32309 2.411543 13.5 0l27.03332-15.607695c4.17692-2.411543 6.75-6.868257 6.75-11.691343v-31.21539c0-4.823086-2.57308-9.2798-6.75-11.691343z" stroke="url(#b)" stroke-width="9"/></g></svg>