<svg height="600" viewBox="0 0 1440 600" width="1440" xmlns="http://www.w3.org/2000/svg" xmlns:xlink="http://www.w3.org/1999/xlink"><linearGradient id="a"><stop offset="0" stop-color="#fcc642"/><stop offset="1" stop-color="#f7941f"/></linearGradient><linearGradient id="b" x1="100%" x2="0%" xlink:href="#a" y1="41.319444%" y2="58.680556%"/><linearGradient id="c" x1="100%" x2="0%" xlink:href="#a" y1="0%" y2="100%"/><linearGradient id="d" x1="100%" x2="0%" xlink:href="#a" y1="17.23356%" y2="82.76644%"/><g fill="none" fill-rule="evenodd" transform="translate(0 -37)"><path d="m0 37h1440v600h-1440z" fill="url(#b)"/><g stroke-width="10"><circle cx="437.5" cy="508.5" r="55.5" stroke="url(#c)"/><circle cx="720.5" cy="48.5" r="43.5" stroke="url(#c)"/><path d="m381.300283 216.230983c-4.307977-4.307977-11.292589-4.307977-15.600566 0l-47.468734 47.468734c-4.307977 4.307977-4.307977 11.292589 0 15.600566l47.468734 47.468734c4.307977 4.307977 11.292589 4.307977 15.600566 0l47.468734-47.468734c4.307977-4.307977 4.307977-11.292589 0-15.600566z" stroke="url(#c)"/><path d="m1017.02173 371c1.24364 0 2.46273-.346133 3.52081-.999653 3.14821-1.944486 4.12403-6.072935 2.17954-9.221149l-42.021733-68.035189c-.547254-.886029-1.293515-1.63229-2.179545-2.179544-3.148214-1.944485-7.276663-.96867-9.221149 2.179544l-42.021734 68.035189c-.65352 1.05808-.999653 2.27717-.999653 3.520802 0 3.700308 2.999692 6.7 6.7 6.7z" stroke="url(#d)"/></g><path d="m543.510867 175c.529008 0 1.047576-.147236 1.497655-.425226 1.339166-.827132 1.754251-2.583263.927119-3.922429l-21.010867-34.017594c-.232787-.376893-.550226-.694333-.927119-.927119-1.339166-.827132-3.095297-.412047-3.922429.927119l-21.010867 34.017594c-.27799.450079-.425226.968647-.425226 1.497655 0 1.574012 1.275988 2.85 2.85 2.85z" stroke="url(#d)" stroke-width="6"/><path d="m936.877853 120.45085c-3.504875-2.54644-8.250831-2.54644-11.755706 0l-37.52772 27.265485c-3.504874 2.54644-4.971455 7.060113-3.632713 11.180339l14.334314 44.116482c1.338743 4.120226 5.178303 6.90983 9.510565 6.90983h46.386814c4.332262 0 8.171822-2.789604 9.510565-6.90983l14.334314-44.116482c1.338742-4.120226-.127839-8.633899-3.632713-11.180339z" stroke="url(#c)" stroke-width="10"/><path d="m1028.5 493.10363c-4.64102-2.679492-10.35898-2.679492-15 0l-30.229473 17.452994c-4.641017 2.679492-7.5 7.631398-7.5 12.990381v34.90599c0 5.358983 2.858983 10.310889 7.5 12.990381l30.229473 17.452994c4.64102 2.679492 10.35898 2.679492 15 0l30.22947-17.452994c4.64102-2.679492 7.5-7.631398 7.5-12.990381v-34.90599c0-5.358983-2.85898-10.310889-7.5-12.990381z" stroke="url(#c)" stroke-width="10"/></g></svg>