<svg height="176" viewBox="0 0 1440 176" width="1440" xmlns="http://www.w3.org/2000/svg" xmlns:xlink="http://www.w3.org/1999/xlink"><linearGradient id="a"><stop offset="0" stop-color="#fcc642"/><stop offset="1" stop-color="#f7941f"/></linearGradient><linearGradient id="b" x1="100%" x2="0%" xlink:href="#a" y1="49.253086%" y2="50.746914%"/><linearGradient id="c" x1="100%" x2="0%" xlink:href="#a" y1="0%" y2="100%"/><linearGradient id="d" x1="79.527254%" x2="-16.599207%" xlink:href="#a" y1="25.177297%" y2="113.955061%"/><linearGradient id="e" x1="100%" x2="0%" xlink:href="#a" y1="16.857232%" y2="83.142768%"/><g fill="none" fill-rule="evenodd"><path d="m0 0h1440v176h-1440z" fill="url(#b)"/><circle cx="1077.5" cy="58.5" r="39.9" stroke="url(#c)" stroke-width="7.2"/><path d="m624.300283 30.2309831c-4.307977-4.3079775-11.292589-4.3079775-15.600566 0l-47.468734 47.4687338c-4.307977 4.3079774-4.307977 11.2925888 0 15.6005662l47.468734 47.4687339c4.307977 4.307977 11.292589 4.307977 15.600566 0l47.468734-47.4687339c4.307977-4.3079774 4.307977-11.2925888 0-15.6005662z" stroke="url(#d)" stroke-width="10"/><path d="m909.17601 124.5c1.114045 0 2.206314-.308621 3.155631-.891626 2.837846-1.742807 3.72555-5.45616 1.982743-8.294006l-37.67601-61.3485463c-.495931-.8075334-1.175209-1.4868114-1.982742-1.9827422-2.837846-1.7428073-6.551199-.8551034-8.294006 1.9827422l-37.67601 61.3485463c-.583004.949318-.891626 2.041586-.891626 3.155632 0 3.330277 2.699723 6.03 6.03 6.03z" stroke="url(#e)" stroke-width="9"/><path d="m369.4 47.2746134c-3.341532-1.9292342-7.458468-1.9292342-10.8 0l-21.973067 12.6861561c-3.341532 1.9292342-5.4 5.494606-5.4 9.3530744v25.3723122c0 3.8584684 2.058468 7.4238399 5.4 9.3530739l21.973067 12.686157c3.341532 1.929234 7.458468 1.929234 10.8 0l21.973067-12.686157c3.341532-1.929234 5.4-5.4946055 5.4-9.3530739v-25.3723122c0-3.8584684-2.058468-7.4238402-5.4-9.3530744z" stroke="url(#c)" stroke-width="7.2"/></g></svg>