<svg height="385" viewBox="0 0 1440 385" width="1440" xmlns="http://www.w3.org/2000/svg" xmlns:xlink="http://www.w3.org/1999/xlink"><linearGradient id="a"><stop offset="0" stop-color="#fcc642"/><stop offset="1" stop-color="#f7941f"/></linearGradient><linearGradient id="b" x1="100%" x2="0%" xlink:href="#a" y1="46.425902%" y2="53.574098%"/><linearGradient id="c" x1="100%" x2="0%" xlink:href="#a" y1="0%" y2="100%"/><linearGradient id="d" x1="79.527254%" x2="-16.599207%" xlink:href="#a" y1="25.177297%" y2="113.955061%"/><linearGradient id="e" x1="100%" x2="0%" xlink:href="#a" y1="17.23356%" y2="82.76644%"/><g fill="none" fill-rule="evenodd"><path d="m0 0h1440v385h-1440z" fill="url(#b)"/><circle cx="953.5" cy="291.5" r="55.5" stroke="url(#c)" stroke-width="10"/><path d="m388.355512 254.097006c-2.12934-2.129341-5.581684-2.129341-7.711024 0l-23.547482 23.547482c-2.129341 2.12934-2.129341 5.581684 0 7.711024l23.547482 23.547482c2.12934 2.129341 5.581684 2.129341 7.711024 0l23.547482-23.547482c2.129341-2.12934 2.129341-5.581684 0-7.711024z" stroke="url(#c)" stroke-width="5"/><g stroke-width="10"><path d="m1109.30028 53.2309831c-4.30797-4.3079775-11.29259-4.3079775-15.60056 0l-47.46874 47.4687339c-4.30797 4.307977-4.30797 11.292589 0 15.600566l47.46874 47.468734c4.30797 4.307977 11.29259 4.307977 15.60056 0l47.46874-47.468734c4.30797-4.307977 4.30797-11.292589 0-15.600566z" stroke="url(#d)"/><path d="m389.021734 127c1.243632 0 2.462722-.346133 3.520802-.999653 3.148215-1.944486 4.12403-6.072935 2.179545-9.221149l-42.021734-68.0351887c-.547254-.8860295-1.293515-1.6322908-2.179545-2.1795443-3.148214-1.9444854-7.276663-.9686702-9.221149 2.1795443l-42.021734 68.0351887c-.65352 1.05808-.999653 2.27717-.999653 3.520802 0 3.700308 2.999692 6.7 6.7 6.7z" stroke="url(#e)"/><path d="m600.5 246.10363c-4.641016-2.679492-10.358984-2.679492-15 0l-30.229473 17.452994c-4.641017 2.679492-7.5 7.631398-7.5 12.990381v34.90599c0 5.358983 2.858983 10.310889 7.5 12.990381l30.229473 17.452994c4.641016 2.679492 10.358984 2.679492 15 0l30.229473-17.452994c4.641017-2.679492 7.5-7.631398 7.5-12.990381v-34.90599c0-5.358983-2.858983-10.310889-7.5-12.990381z" stroke="url(#c)"/></g></g></svg>