<?xml version="1.0" encoding="UTF-8"?>
<svg width="1440px" height="1440px" viewBox="0 0 1440 1440" version="1.1" xmlns="http://www.w3.org/2000/svg" xmlns:xlink="http://www.w3.org/1999/xlink">
    <!-- Generator: Sketch 55.2 (78181) - https://sketchapp.com -->
    <title>Group 16 Copy</title>
    <desc>Created with Sketch.</desc>
    <defs>
        <linearGradient x1="100%" y1="0%" x2="0%" y2="100%" id="linearGradient-1">
            <stop stop-color="#FCC642" offset="0%"></stop>
            <stop stop-color="#F7941F" offset="100%"></stop>
        </linearGradient>
        <rect id="path-2" x="0" y="0" width="1440" height="1440"></rect>
        <linearGradient x1="100%" y1="17.2335601%" x2="0%" y2="82.7664399%" id="linearGradient-4">
            <stop stop-color="#FCC642" offset="0%"></stop>
            <stop stop-color="#F7941F" offset="100%"></stop>
        </linearGradient>
        <linearGradient x1="100%" y1="17.2335601%" x2="0%" y2="82.7664399%" id="linearGradient-5">
            <stop stop-color="#FCC642" offset="0%"></stop>
            <stop stop-color="#F7941F" offset="100%"></stop>
        </linearGradient>
    </defs>
    <g id="Page-1" stroke="none" stroke-width="1" fill="none" fill-rule="evenodd">
        <g id="Group-16-Copy">
            <mask id="mask-3" fill="white">
                <use xlink:href="#path-2"></use>
            </mask>
            <use id="Rectangle" fill="url(#linearGradient-1)" xlink:href="#path-2"></use>
            <circle id="Oval" stroke="url(#linearGradient-1)" stroke-width="40" mask="url(#mask-3)" cx="294" cy="1127" r="222"></circle>
            <circle id="Oval-Copy" stroke="url(#linearGradient-1)" stroke-width="40" mask="url(#mask-3)" cx="1336" cy="83" r="174"></circle>
            <path d="M216.201132,-20.0760678 C198.969223,-37.3079774 171.030777,-37.3079774 153.798868,-20.0760678 L-36.0760678,169.798868 C-53.3079774,187.030777 -53.3079774,214.969223 -36.0760678,232.201132 L153.798868,422.076068 C171.030777,439.307977 198.969223,439.307977 216.201132,422.076068 L406.076068,232.201132 C423.307977,214.969223 423.307977,187.030777 406.076068,169.798868 L216.201132,-20.0760678 Z" id="Rectangle" stroke="url(#linearGradient-1)" stroke-width="40" mask="url(#mask-3)"></path>
            <path d="M1487.08694,1388 C1492.06147,1388 1496.93783,1386.61547 1501.17015,1384.00139 C1513.763,1376.22344 1517.66626,1359.70965 1509.88832,1347.11679 L1341.80139,1074.97604 C1339.61237,1071.43192 1336.62733,1068.44687 1333.08321,1066.25786 C1320.49035,1058.47992 1303.97656,1062.38318 1296.19861,1074.97604 L1128.11168,1347.11679 C1125.4976,1351.34911 1124.11306,1356.22547 1124.11306,1361.2 C1124.11306,1376.00123 1136.11183,1388 1150.91306,1388 L1487.08694,1388 Z" id="Rectangle" stroke="url(#linearGradient-4)" stroke-width="40" mask="url(#mask-3)"></path>
            <path d="M561.043468,647 C563.159499,647 565.233772,646.411057 567.034087,645.299097 C572.39075,641.99057 574.051093,634.966045 570.742565,629.609381 L486.699097,493.539004 C485.767949,492.031432 484.498191,490.761674 482.990619,489.830526 C477.633955,486.521999 470.60943,488.182341 467.300903,493.539004 L383.257435,629.609381 C382.145475,631.409696 381.556532,633.483969 381.556532,635.6 C381.556532,641.896046 386.660486,647 392.956532,647 L561.043468,647 Z" id="Rectangle-Copy-3" stroke="url(#linearGradient-5)" stroke-width="24" mask="url(#mask-3)"></path>
            <path d="M853.809128,192.842719 C842.593531,184.694111 827.406469,184.694111 816.190872,192.842719 L696.102167,280.092271 C684.88657,288.240879 680.193509,302.684633 684.477486,315.869358 L730.34729,457.042098 C734.631267,470.226823 746.917858,479.153554 760.781099,479.153554 L909.218901,479.153554 C923.082142,479.153554 935.368733,470.226823 939.65271,457.042098 L985.522514,315.869358 C989.806491,302.684633 985.11343,288.240879 973.897833,280.092271 L853.809128,192.842719 Z" id="Polygon" stroke="url(#linearGradient-1)" stroke-width="32" mask="url(#mask-3)"></path>
            <path d="M961.6,752.331615 C946.748748,743.757241 928.451252,743.757241 913.6,752.331615 L816.865685,808.181198 C802.014433,816.755572 792.865685,832.601669 792.865685,849.750417 L792.865685,961.449583 C792.865685,978.598331 802.014433,994.444428 816.865685,1003.0188 L913.6,1058.86838 C928.451252,1067.44276 946.748748,1067.44276 961.6,1058.86838 L1058.33431,1003.0188 C1073.18557,994.444428 1082.33431,978.598331 1082.33431,961.449583 L1082.33431,849.750417 C1082.33431,832.601669 1073.18557,816.755572 1058.33431,808.181198 L961.6,752.331615 Z" id="Polygon-Copy" stroke="url(#linearGradient-1)" stroke-width="32" mask="url(#mask-3)"></path>
        </g>
    </g>
</svg>