<svg height="35" viewBox="0 0 108 35" width="108" xmlns="http://www.w3.org/2000/svg" xmlns:xlink="http://www.w3.org/1999/xlink"><radialGradient id="a" cx="50%" cy="50%" gradientTransform="matrix(0 1 -.295082 0 .647541 0)" r="50%"><stop offset="0" stop-color="#fff" stop-opacity=".014663"/><stop offset="1" stop-color="#fff" stop-opacity="0"/></radialGradient><linearGradient id="b"><stop offset="0" stop-color="#fcc642"/><stop offset="1" stop-color="#f7941f"/></linearGradient><linearGradient id="c" x1="83.187576%" x2="16.812425%" xlink:href="#b" y1="0%" y2="100%"/><linearGradient id="d" x1="100%" x2="0%" xlink:href="#b" y1="47.946557%" y2="52.053443%"/><linearGradient id="e" x1="100%" x2="0%" xlink:href="#b" y1="49.504659%" y2="50.495341%"/><g fill="none" transform="translate(-6)"><path d="m0 0h122v36h-122z" fill="url(#a)"/><g transform="translate(6.22963 2.6)"><path d="m19.7502614 15.4468396c.0373982 4.3718627 3.8293424 5.8170784 3.8758067 5.8329227-.0226656.1018554-.593837 2.0857734-2.0160995 4.1002481-1.187674 1.7734167-2.432012 3.507223-4.4084467 3.5389114-1.9197709.0441373-2.5657387-1.1283322-4.7676955-1.1283322-2.2223558 0-2.91025481 1.0966438-4.75182961 1.1724695-1.88237276.0690354-3.32050102-1.8933798-4.55123962-3.6509524-2.46034394-3.5887073-4.37558173-10.1131154-1.8075765-14.5528817 1.24433792-2.17744346 3.51315808-3.57965363 5.93837043-3.61700063 1.88463934-.03847873 3.6332854 1.27092979 4.7914943 1.27092979 1.1355434 0 3.2978355-1.56631063 5.5269909-1.33204307.9326869.02716145 3.5868211.36781138 5.2992023 2.86100666-.1382597.08261615-3.1618421 1.85716455-3.1289772 5.50472185zm-3.6264857-10.72651173c-1.0335484 1.21773861-2.6869993 2.14915021-4.2973856 2.02918711-.2107895-1.64326809.6051698-3.39065509 1.5185908-4.45674225 1.0324152-1.20981652 2.8252591-2.13670121 4.2588543-2.20007794.1881239 1.70777655-.4895756 3.3906551-1.4800595 4.62763308z" fill="url(#c)"/><path d="m42.1509898 26.6068737-1.1107477-3.2065902h-4.6281156l-1.1107477 3.2065902h-1.9606381l4.3840877-11.8643837h2.0363708l4.3840877 11.8643837zm-3.4500497-9.8910975-1.8091725 5.2045426h3.6688335l-1.8091725-5.2045426zm11.1747954 1.1017515c2.2467398 0 3.7277367 1.7266255 3.7277367 4.4645602 0 2.7379348-1.4725822 4.4727823-3.6940777 4.4727823-1.2706281 0-2.2803987-.6084299-2.7852841-1.570407h-.0420738v4.2836756h-1.8175872v-11.5108366h1.758684v1.4881867h.033659c.5217148-.9948652 1.5399002-1.6279612 2.8189431-1.6279612zm-.479641 7.4327117c1.4389231 0 2.339302-1.1510837 2.339302-2.9681515 0-1.8088457-.9003789-2.9681514-2.339302-2.9681514-1.3884348 0-2.3224726 1.1839717-2.3224726 2.9681514 0 1.8006237.9256231 2.9681515 2.3224726 2.9681515zm10.2155133-7.4327117c2.2467397 0 3.7277366 1.7266255 3.7277366 4.4645602 0 2.7379348-1.4725822 4.4727823-3.6940777 4.4727823-1.2706281 0-2.2803987-.6084299-2.7852841-1.570407h-.0420737v4.2836756h-1.8175873v-11.5108366h1.758684v1.4881867h.033659c.5217149-.9948652 1.5399003-1.6279612 2.8189432-1.6279612zm-.4796411 7.4327117c1.4389232 0 2.339302-1.1510837 2.339302-2.9681515 0-1.8088457-.9003788-2.9681514-2.339302-2.9681514-1.3884347 0-2.3224726 1.1839717-2.3224726 2.9681514 0 1.8006237.9256232 2.9681515 2.3224726 2.9681515zm8.77659-1.9486202h1.859661c.1346361 1.1757497 1.3042871 1.9486202 2.9030907 1.9486202 1.5314855 0 2.6338185-.7728705 2.6338185-1.8335118 0-.920867-.6647657-1.4717428-2.2383249-1.849956l-1.5735594-.3699911c-2.2299102-.5262097-3.2649251-1.5457409-3.2649251-3.1983682 0-2.0472845 1.8260019-3.453251 4.4177467-3.453251 2.5665004 0 4.3251843 1.4059665 4.3840876 3.453251h-1.8344167c-.1093919-1.1839718-1.1107477-1.8992881-2.5749153-1.8992881-1.4641674 0-2.4655234.7235384-2.4655234 1.7759577 0 .8386467.6395215 1.3319682 2.204666 1.7101814l1.3379462.320659c2.4907676.5755419 3.5257825 1.553963 3.5257825 3.2888106 0 2.2199471-1.8091724 3.6094695-4.6870188 3.6094695-2.6927218 0-4.510309-1.3566344-4.6281156-3.5025832zm11.3178463-7.3916015h1.8260019v2.0472845h1.6829512v1.4059664h-1.6829512v4.7687753c0 .7482044.3365903 1.0853074 1.0770888 1.0853074.1851246 0 .4796411-.016444.5974476-.0411101v1.4059665c-.2019541.0493321-.6058624.0822202-1.0097706.0822202-1.792343 0-2.4907677-.6659841-2.4907677-2.3350554v-4.9661039h-1.2874576v-1.4059664h1.2874576zm8.8018343 10.8612965c-2.5328413 0-4.198963-1.7019594-4.198963-4.4892263 0-2.7790448 1.6745364-4.4810042 4.198963-4.4810042 2.5244269 0 4.1989628 1.7019594 4.1989628 4.4810042 0 2.7872669-1.6661215 4.4892263-4.1989628 4.4892263zm0-1.4635206c1.430509 0 2.3477167-1.1017515 2.3477167-3.0257057 0-1.915732-.925623-3.0174836-2.3477167-3.0174836-1.4220936 0-2.3477167 1.1017516-2.3477167 3.0174836 0 1.9239542.9256231 3.0257057 2.3477167 3.0257057zm5.6042275 1.2990801v-8.6495715h1.7334392v1.4717426h.0420738c.294517-1.0113092 1.0855035-1.6115171 2.1289334-1.6115171.2608577 0 .488056.0411101.6226916.0657762v1.6526273c-.1430509-.0575542-.4628111-.0986643-.8162306-.0986643-1.169651 0-1.8933207.7646484-1.8933207 1.9897303v5.1798765zm9.3572082-7.3751575c-1.270628 0-2.162593.945533-2.255154 2.2528352h4.42616c-.042073-1.3237462-.900379-2.2528352-2.171006-2.2528352zm2.162592 4.8345515h1.725025c-.252442 1.5786289-1.783928 2.7050465-3.811885 2.7050465-2.600159 0-4.1737181-1.7184035-4.1737181-4.4481161 0-2.7132687 1.5988041-4.5221144 4.0979861-4.5221144 2.457108 0 3.988594 1.6937374 3.988594 4.3165637v.60843h-6.252164v.1068863c0 1.5046308.925623 2.499496 2.381376 2.499496 1.035016 0 1.800758-.5097656 2.044786-1.266192z" fill="url(#d)"/><path d="m34.8479774 2.92456055h2.4706236c2.0823133 0 3.3151982 1.27617187 3.3151982 3.47563476 0 2.20429688-1.228031 3.49980469-3.3151982 3.49980469h-2.4706236zm1.0872685.93295898v5.1046875h1.2814236c1.4852865 0 2.3055917-.90395508 2.3055917-2.55234375 0-1.64355468-.8251591-2.55234375-2.3055917-2.55234375zm7.7826383 6.13916018c-1.461017 0-2.4220847-1.00063479-2.4220847-2.63935549 0-1.63388672.9659216-2.63452149 2.4220847-2.63452149 1.4561633 0 2.4220848 1.00063477 2.4220848 2.63452149 0 1.6387207-.9610676 2.63935549-2.4220848 2.63935549zm0-.86044923c.8251592 0 1.3542319-.64775392 1.3542319-1.77890626 0-1.12631836-.5339265-1.77407227-1.3542319-1.77407227-.8203052 0-1.3542317.64775391-1.3542317 1.77407227 0 1.13115234.5339265 1.77890626 1.3542317 1.77890626zm9.9329061-4.32158204-1.3979166 5.08535156h-1.0921224l-1.072707-3.80917969h-.0242693l-1.0629992 3.80917969h-1.0824147l-1.4027705-5.08535156h1.0484375l.9319445 4.00253906h.0194155l1.0629991-4.00253906h1.0096065l1.067853 4.00253906h.0242694l.9319444-4.00253906zm.6231693 5.08535156v-5.08535156h.9998988v.85078125h.0242694c.2766709-.58007813.8203052-.93779297 1.6066333-.93779297 1.1260995 0 1.7716652.71542968 1.7716652 1.88041992v3.29194336h-1.0532913v-3.08891602c0-.76376953-.359187-1.18432617-1.0872685-1.18432617-.7377894 0-1.2134694.52207032-1.2134694 1.31000977v2.96323242zm5.4333618 0v-6.97543945h1.0484374v6.97543945zm4.3024083.09667971c-1.4610171 0-2.4220848-1.00063479-2.4220848-2.63935549 0-1.63388672.9659216-2.63452149 2.4220848-2.63452149s2.4220847 1.00063477 2.4220847 2.63452149c0 1.6387207-.9610676 2.63935549-2.4220847 2.63935549zm0-.86044923c.8251591 0 1.3542317-.64775392 1.3542317-1.77890626 0-1.12631836-.5339265-1.77407227-1.3542317-1.77407227-.8203053 0-1.3542318.64775391-1.3542318 1.77407227 0 1.13115234.5339265 1.77890626 1.3542318 1.77890626zm5.0013666.02416995c.7329355 0 1.3056931-.50273441 1.3056931-1.16499028v-.4012207l-1.2571543.07734375c-.6261501.04350586-.9804832.31904297-.9804832.75410157 0 .44472656.3688947.73476566.9319444.73476566zm-.2912326.8266113c-.9998987 0-1.6988571-.61875-1.6988571-1.53237306 0-.88945312.6843967-1.43569336 1.8978661-1.50336914l1.3979167-.08217773v-.39155274c0-.56557617-.3834564-.90395508-1.0241681-.90395508-.6067347 0-.9853372.29003907-1.0775608.7444336h-.990191c.0582466-.91845703.8445746-1.59521485 2.1065827-1.59521485 1.2377387 0 2.0289208.6525879 2.0289208 1.6725586v3.50463867h-1.0047526v-.83627928h-.0242695c-.2960865.5655762-.9416522.92329101-1.6114872.92329101zm5.5547087 0c-1.2911314 0-2.1454138-1.0248047-2.1454138-2.62968751 0-1.60488282.8542824-2.62485352 2.135706-2.62485352.7329355 0 1.3154008.36738282 1.6017795.928125h.0194156v-2.73603515h1.0532913v6.97543945h-1.0193142v-.86528322h-.0194155c-.3009404.58007817-.8834057.95229495-1.6260489.95229495zm.276671-4.37475587c-.830013 0-1.3493779.67675781-1.3493779 1.74506836 0 1.07314453.5193649 1.74506833 1.3493779 1.74506833.8057436 0 1.344524-.68159177 1.344524-1.74506833 0-1.05380859-.5387804-1.74506836-1.344524-1.74506836zm7.6340412 4.38442385c-1.4610171 0-2.4220848-1.00063479-2.4220848-2.63935549 0-1.63388672.9659216-2.63452149 2.4220848-2.63452149 1.4561631 0 2.4220848 1.00063477 2.4220848 2.63452149 0 1.6387207-.9610678 2.63935549-2.4220848 2.63935549zm0-.86044923c.8251592 0 1.3542318-.64775392 1.3542318-1.77890626 0-1.12631836-.5339265-1.77407227-1.3542318-1.77407227s-1.3542318.64775391-1.3542318 1.77407227c0 1.13115234.5339265 1.77890626 1.3542318 1.77890626zm3.2151398.76376952v-5.08535156h.9998987v.85078125h.0242694c.276671-.58007813.8203053-.93779297 1.6066334-.93779297 1.1260996 0 1.7716652.71542968 1.7716652 1.88041992v3.29194336h-1.0532913v-3.08891602c0-.76376953-.359187-1.18432617-1.0872686-1.18432617-.7377894 0-1.2134693.52207032-1.2134693 1.31000977v2.96323242zm7.6971418-6.28901367h1.053291v1.20366211h.9707757v.82661133h-.9707757v2.80371093c0 .43989258.1941553.63808598.6212963.63808598.1067853 0 .2766707-.00966798.3446256-.02416995v.8266113c-.1164928.02900394-.3494794.0483399-.582465.0483399-1.0338759 0-1.4367479-.39155274-1.4367479-1.3728516v-2.91972656h-.7426439v-.82661133h.7426439zm2.904491 6.28901367v-6.97543945h1.0387306v2.74086914h.024269c.2815245-.59458008.8397205-.93779297 1.6163409-.93779297 1.121246 0 1.7910813.74443359 1.7910813 1.89492188v3.2774414h-1.0532922v-3.07441406c0-.74926758-.3786021-1.19882813-1.1163912-1.19882813-.7766204 0-1.2523002.53173829-1.2523002 1.33417969v2.9390625zm7.5981918-4.33608398c-.732935 0-1.247447.5559082-1.300839 1.32451171h2.553139c-.024269-.77827148-.519365-1.32451171-1.2523-1.32451171zm1.247446 2.84238281h.995045c-.145617.92812497-1.029022 1.59038088-2.198806 1.59038088-1.499848 0-2.407524-1.01030276-2.407524-2.61518557 0-1.59521484.922237-2.65869141 2.363839-2.65869141 1.417332 0 2.300737.99580079 2.300737 2.5378418v.35771485h-3.60643v.06284179c0 .88461914.533926 1.46953128 1.373647 1.46953128.597027 0 1.03873-.29970706 1.179492-.74443362z" fill="url(#e)"/></g></g></svg>