<svg height="47" viewBox="0 0 49 47" width="49" xmlns="http://www.w3.org/2000/svg" xmlns:xlink="http://www.w3.org/1999/xlink"><radialGradient id="a" cx="50%" cy="50%" r="50%"><stop offset="0" stop-color="#fff" stop-opacity=".01"/><stop offset="1" stop-color="#fff" stop-opacity="0"/></radialGradient><g fill="none" transform="translate(-1 -1)"><path d="m0 0h50v50h-50z" fill="url(#a)"/><path d="m25.0000297 30c2.7614069 0 4.9999703-2.2385634 4.9999703-4.9999703 0-2.7614663-2.2385634-5.0000297-4.9999703-5.0000297-2.7614663 0-5.0000297 2.2385634-5.0000297 5.0000297 0 2.7614069 2.2385634 4.9999703 5.0000297 4.9999703zm0-12.7026979c4.2540802 0 7.7026682 3.448588 7.7026682 7.7027276 0 4.2540802-3.448588 7.7026682-7.7026682 7.7026682-4.2541396 0-7.7027276-3.448588-7.7027276-7.7026682 0-4.2541396 3.448588-7.7027276 7.7027276-7.7027276zm0-7.2973021c4.0737257 0 4.5845417.0172673 6.1844512.0902666 1.596575.0728206 2.6869786.3264125 3.6410891.6972437.9863826.3832757 1.8228965.8961756 2.65685 1.7300697.8338941.8339535 1.346794 1.6704674 1.7301292 2.65685.3707717.9541105.6243637 2.0445141.6971842 3.6410891.0729992 1.5999095.0902666 2.1107255.0902666 6.1845106 0 4.0737257-.0172674 4.5845417-.0902666 6.1844512-.0728205 1.596575-.3264125 2.6869786-.6971842 3.6410891-.3833352.9863826-.8962351 1.8228965-1.7301292 2.65685-.8339535.8338941-1.6704674 1.346794-2.65685 1.7301292-.9541105.3707717-2.0445141.6243637-3.6410891.6971842-1.5999095.0729992-2.1107255.0902666-6.1844512.0902666-4.0737851 0-4.5846011-.0172674-6.1845106-.0902666-1.596575-.0728205-2.6869786-.3264125-3.6410891-.6971842-.9863826-.3833352-1.8228965-.8962351-2.65685-1.7301292-.8338941-.8339535-1.346794-1.6704674-1.7300697-2.65685-.3708312-.9541105-.6244231-2.0445141-.6972437-3.6410891-.0729993-1.5999095-.0902666-2.1107255-.0902666-6.1844512 0-4.0737851.0172673-4.5846011.0902666-6.1845106.0728206-1.596575.3264125-2.6869786.6972437-3.6410891.3832757-.9863826.8961756-1.8228965 1.7300697-2.65685.8339535-.8338941 1.6704674-1.346794 2.65685-1.7300697.9541105-.3708312 2.0445141-.6244231 3.6410891-.6972437 1.5999095-.0729993 2.1107255-.0902666 6.1845106-.0902666zm.0000001 2.7026979c-4.0051922 0-4.4796276.0153025-6.061317.0874681-1.4624852.0666876-2.2567238.3110505-2.7852834.5164724-.7001614.2721096-1.1998429.5971527-1.7247108 1.1220802-.5249275.5248679-.8499706 1.0245494-1.1220802 1.7247108-.2054219.5285596-.4497848 1.3227982-.5164724 2.7852834-.0721656 1.5816894-.0874681 2.0561248-.0874681 6.061317 0 4.0051326.0153025 4.479568.0874681 6.0612574.0666876 1.4624852.3110505 2.2567238.5164724 2.7852834.2721096.7001614.5972122 1.1998429 1.1220802 1.7247108.5248679.5249275 1.0245494.8499706 1.7247108 1.1220802.5285596.2054219 1.3227982.4497848 2.7852834.5164724 1.5815108.0721656 2.0558272.0874681 6.061317.0874681 4.0054302 0 4.4798061-.0153025 6.0612574-.0874681 1.4624852-.0666876 2.2567238-.3110505 2.7852834-.5164724.7001614-.2721096 1.1998429-.5971527 1.7247108-1.1220802.5249275-.5248679.8499706-1.0245494 1.1220802-1.7247108.2054219-.5285596.4497848-1.3227982.5164724-2.7852834.0721656-1.5816894.0874681-2.0561248.0874681-6.0612574 0-4.0051922-.0153025-4.4796276-.0874681-6.061317-.0666876-1.4624852-.3110505-2.2567238-.5164724-2.7852834-.2721096-.7001614-.5971527-1.1998429-1.1220802-1.7247108-.5248679-.5249275-1.0245494-.8499706-1.7247108-1.1220802-.5285596-.2054219-1.3227982-.4497848-2.7852834-.5164724-1.5816894-.0721656-2.0561248-.0874681-6.0612574-.0874681zm9.8070224 4.290282c0 .9941232-.805909 1.7999726-1.8000321 1.7999726-.9940636 0-1.7999726-.8058494-1.7999726-1.7999726s.805909-1.8000321 1.7999726-1.8000321c.9941231 0 1.8000321.8059089 1.8000321 1.8000321z" fill="#8387b6"/></g></svg>