<svg height="47" viewBox="0 0 49 47" width="49" xmlns="http://www.w3.org/2000/svg" xmlns:xlink="http://www.w3.org/1999/xlink"><radialGradient id="a" cx="50%" cy="50%" r="50%"><stop offset="0" stop-color="#fff" stop-opacity=".01"/><stop offset="1" stop-color="#fff" stop-opacity="0"/></radialGradient><g fill="none" transform="translate(-1 -1)"><path d="m0 0h50v50h-50z" fill="url(#a)"/><path d="m19.2025 37.5c11.7925 0 18.2425-9.6189966 18.2425-17.9605472 0-.273211 0-.5451913-.01875-.815941 1.2547892-.8935835 2.3379444-2.0000038 3.19875-3.267456-1.1701511.5104883-2.4114634.8452665-3.6825.993159 1.33843-.7888882 2.3401544-2.0296724 2.81875-3.4914399-1.2585531.7352765-2.6354424 1.2534626-4.07125 1.532197-1.9873965-2.0805951-5.1453508-2.5898281-7.7030634-1.2421504-2.5577126 1.3476778-3.8790928 4.2171053-3.2231866 6.9992724-5.1551304-.2544436-9.9581552-2.651718-13.21375-6.5952153-1.70172155 2.8842772-.8325151 6.5741208 1.985 8.4264675-1.0203235-.0297732-2.0184008-.3007621-2.91-.7900967v.0799942c.0008352 3.0048202 2.1521894 5.5928695 5.14375 6.1878601-.943913.2534464-1.9342743.2904952-2.895.1082999.8399349 2.5714114 3.2469682 4.3329591 5.99 4.383683-2.2703313 1.7567123-5.0749256 2.7103612-7.9625 2.7074965-.5101205-.0009642-1.01974491-.0313731-1.52625-.0910703 2.9320449 1.8525141 6.3436417 2.8351388 9.8275 2.8305644" fill="#ffffff"/></g></svg>