<svg height="35" viewBox="0 0 115 35" width="115" xmlns="http://www.w3.org/2000/svg" xmlns:xlink="http://www.w3.org/1999/xlink"><radialGradient id="a" cx="50%" cy="50%" gradientTransform="matrix(0 1 -.295082 0 .647541 0)" r="50%"><stop offset="0" stop-color="#fff" stop-opacity=".014663"/><stop offset="1" stop-color="#fff" stop-opacity="0"/></radialGradient><linearGradient id="b"><stop offset="0" stop-color="#fcc642"/><stop offset="1" stop-color="#f7941f"/></linearGradient><linearGradient id="c" x1="91.234678%" x2="8.765322%" xlink:href="#b" y1="0%" y2="100%"/><linearGradient id="d" x1="100%" x2="0%" xlink:href="#b" y1="48.080485%" y2="51.919515%"/><linearGradient id="e" x1="100%" x2="0%" xlink:href="#b" y1="48.671193%" y2="51.328807%"/><g fill="none" transform="translate(-3)"><path d="m0 0h122v36h-122z" fill="url(#a)"/><g transform="translate(2.711111 2.7)"><path d="m3.65092248 1.38790627 15.55993242 8.80494873-3.4662935 3.6358503zm22.62271762 14.18697083-5.721926 3.2195755-3.81024-3.9378476 3.8033536-3.8729257 5.7288124 3.2892635c.7593168.4359703.7593168.8659639 0 1.3019343zm-25.57249067-14.44010638c0-.29187687.04793332-.51469911.13291487-.67529775l13.9269363 14.39335883-13.9269363 14.393359c-.08498155-.1605987-.13291487-.3834209-.13291487-.6752978zm18.51166117 18.38008938-15.57035948 8.8719169 12.10326298-12.5086096z" fill="url(#c)"/><path d="m109.841796 29.0088h-1.595573l1.91492-4.1915769-3.39345-7.7892231h1.68006l2.452461 5.973369h.033718l2.385414-5.973369h1.679672zm-7.189766-11.9808c2.01367 0 3.658367 1.2076805 3.658367 3.5220468v4.9646078h-1.476665v-1.1403507h-.067368c-.452989.6876156-1.291985 1.4088961-2.70167 1.4088961-1.678381 0-3.0710302-1.0397429-3.0710302-2.7508493 0-1.8616312 1.6779932-2.8680961 3.6080342-2.8680961 1.107693 0 1.913006.3188493 2.232034.503426v-.2348806c0-1.2413454-.989993-1.9959039-2.148018-1.9959039-.856032 0-1.678381.4190701-1.963725 1.1906545l-1.4092979-.6036467c.2849568-.7545585 1.2753379-1.9959039 3.3393389-1.9959039zm-.335675 7.3463039c1.225004 0 2.517377-1.0567688 2.517377-2.398722 0 0-.654704-.5363169-1.963338-.5363169-1.628049 0-2.265717.8718052-2.265717 1.6267506 0 .8721922.906364 1.3082883 1.711678 1.3082883zm-5.6091709-10.5719039h1.3718873v11.9808h-1.3718873zm-5.0925836 0c1.9762726 0 3.7206963 1.4727486 3.7206963 3.5643217 0 2.0915733-1.7444237 3.5639358-3.7206963 3.5639358h-2.5250462v4.8525425h-1.528287v-11.9808zm.0329562 5.655895c1.3619692 0 2.126113-1.1380505 2.126113-2.0915733 0-.9539086-.7641438-2.0915731-2.126113-2.0915731h-2.5580024v4.1831464zm-14.8393343 2.2450814 3.6305504-1.4955588c-.2000304-.5032251-.7997367-.8542235-1.5075362-.8542235-.90783 0-2.169175.7931803-2.1230142 2.3497823zm2.2614966 4.1501759c-2.3076574 0-4.0306108-1.7698718-4.0306108-4.0280894 0-2.3955649 1.7383404-4.028471 3.8305805-4.028471 2.1076272 0 3.138168 1.6634277 3.4766809 2.5634337l.1846433.4578241-5.4304385 2.2276961c.4150629.8088226 1.0613147 1.2208644 1.9691446 1.2208644.9074453 0 1.5383101-.4425634 1.9999186-1.1140388l1.3844406.9156482c-.4462215.6558332-1.5229231 1.7851327-3.3843592 1.7851327zm-6.6767812-.2441729v-11.8404769h1.7845013v11.8404769zm-5.0923103 3.8602206c-1.9691447 0-3.1539396-1.3120477-3.6001611-2.380304l1.5540817-.6405723c.276965.6558331.9536061 1.4341341 2.0460794 1.4341341 1.3382797 0 2.1691749-.8240834 2.1691749-2.3650432v-.5799106h-.0615478c-.4000606.4883457-1.169408.9156483-2.138401.9156483-2.0306925 0-3.8921285-1.754611-3.8921285-4.0128286 0-2.2734784 1.861436-4.0437318 3.8921285-4.0437318.968993 0 1.7383404.4273026 2.138401.9003875h.0615478v-.6562146h1.6921796v7.2324769c0 2.9754754-1.7691144 4.1959583-3.8613545 4.1959583zm.1230955-5.2027898c1.2151842 0 2.169175-1.022474 2.169175-2.4260865 0-1.4192549-.9539908-2.456608-2.169175-2.456608-1.2309558 0-2.2614966 1.0373531-2.2614966 2.456608 0 1.4036125 1.0305408 2.4260865 2.2614966 2.4260865zm-8.8613431 1.5867421c-2.2461097 0-4.0767718-1.7088286-4.0767718-4.0280894 0-2.3345216 1.8306621-4.028471 4.0767718-4.028471s4.0767718 1.6939494 4.0767718 4.028471c0 2.3192608-1.8306621 4.0280894-4.0767718 4.0280894zm0-1.5867421c1.2305711 0 2.2922705-1.0072132 2.2922705-2.4413473 0-1.4497765-1.0616994-2.4413472-2.2922705-2.4413472-1.2309559 0-2.2922706.9915707-2.2922706 2.4413472 0 1.4341341 1.0613147 2.4413473 2.2922706 2.4413473zm-8.8921171 1.5867421c-2.2461097 0-4.0771564-1.7088286-4.0771564-4.0280894 0-2.3345216 1.8310467-4.028471 4.0771564-4.028471s4.0767718 1.6939494 4.0767718 4.028471c0 2.3192608-1.8306621 4.0280894-4.0767718 4.0280894zm0-1.5867421c1.2305711 0 2.2922705-1.0072132 2.2922705-2.4413473 0-1.4497765-1.0616994-2.4413472-2.2922705-2.4413472-1.2309558 0-2.2922705.9915707-2.2922705 2.4413472 0 1.4341341 1.0613147 2.4413473 2.2922705 2.4413473zm-10.5846813 1.5867421c-3.4766809 0-6.3998162-2.8076065-6.3998162-6.2557854 0-3.4485604 2.9231353-6.2561669 6.3998162-6.2561669 1.9229838 0 3.2924221.7477794 4.322963 1.7244709l-1.2151842 1.2052221c-.7385735-.6867362-1.7383405-1.2204828-3.1077788-1.2204828-2.5384617 0-4.5229932 2.0293055-4.5229932 4.5469567 0 2.5176513 1.9845315 4.5469568 4.5229932 4.5469568 1.6460187 0 2.5846226-.6562146 3.1847135-1.251386.4923823-.4883458.8151235-1.1899613.9382192-2.1513919h-4.1229327v-1.7088287h5.80011c.0615477.3052161.0923216.6714754.0923216 1.0678749 0 1.2819076-.3538998 2.8686497-1.4925339 3.9979493-1.1074756 1.1441788-2.5226901 1.754611-4.3998977 1.754611z" fill="url(#d)"/><path d="m36.8228636 7.03944096c-.0547804.07200036-.1309956.15179956-.2286478.2394-.0976523.08760044-.2232882.16919963-.3769119.2448-.1536236.07560038-.3382072.13919974-.5537567.1908-.2155494.05160026-.4686076.0774-.7591825.0774-.3263013 0-.6258033-.05639943-.898515-.1692-.2727115-.11280056-.5067161-.27599893-.7020205-.4896-.1953044-.21360106-.3471394-.47639844-.4555095-.7884s-.1625544-.66839799-.1625544-1.0692v-.3456c0-.39840199.0488254-.75419843.1464775-1.0674.0976523-.31320156.238174-.57779892.4215697-.7938.1833956-.21600108.4072778-.38039943.6716533-.4932.2643754-.11280056.5644728-.1692.9003011-.1692.3167743 0 .5930544.04139959.8288488.1242.2357943.08280042.4346684.19859926.5966281.3474.1619598.14880075.2893821.32579898.3822708.531.0928887.20520103.1548135.43019878.1857764.675h-.8860107c-.0214358-.13680068-.0571617-.26279942-.1071787-.378-.0500169-.11520057-.1184916-.21479958-.2054259-.2988-.0869342-.08400042-.1941118-.14999976-.3215361-.198-.1274242-.04800024-.2792592-.072-.4555095-.072-.2119767 0-.395965.03959961-.5519704.1188-.1560054.0792004-.2858094.19499924-.389416.3474-.1036066.15240077-.1810127.33959889-.2322206.5616-.0512078.22200111-.0768113.47459859-.0768113.7578v.3528c0 .28800144.0309624.54299889.0928881.765.0619258.22200111.1506451.40859925.2661605.5598.1155155.15120076.2560372.26639961.4215696.3456.1655324.0792004.3530933.1188.5626883.1188.1548144 0 .2875957-.01019989.3983476-.0306.1107518-.0204001.2042346-.04619984.280451-.0774.0762162-.03120015.1387365-.06539981.1875627-.1026.0488261-.03720018.08872-.07259983.1196829-.1062v-1.026h-1.0717872v-.6912h1.9720883zm4.0334924-1.6596h-2.1364291v1.6128h2.497264v.7272h-3.4011378v-5.2416h3.3761296v.7344h-2.4722558v1.4472h2.1364291zm4.8551957-2.1672h-1.6219712v4.5072h-.8967285v-4.5072h-1.6076808v-.7344h4.1263805zm3.4582999 4.5072h-.9003012v-5.2416h.9003012zm4.8694863-4.5072h-1.6219712v4.5072h-.8967286v-4.5072h-1.6076807v-.7344h4.1263805zm6.6557982 2.0232c0 .39840199-.0518026.75539843-.1554091 1.071-.1036067.31560158-.2494873.5831989-.4376465.8028-.1881591.2196011-.414423.38819942-.6787985.5058-.2643755.11760059-.5573277.1764-.8788655.1764-.3191559 0-.6109173-.05879941-.8752928-.1764-.2643755-.11760058-.4924257-.2861989-.6841574-.5058-.1917318-.2196011-.3405897-.48719842-.4465781-.8028-.1059883-.31560157-.1589817-.67259801-.1589817-1.071v-.2664c0-.39840199.0529934-.75599841.1589817-1.0728.1059884-.31680158.2536554-.58559889.4430055-.8064.1893499-.2208011.4162093-.38999941.6805848-.5076.2643755-.11760058.5561368-.1764.8752928-.1764.3215378 0 .6150854.05879942.8806518.1764.2655663.11760059.4930211.2867989.6823711.5076.18935.22080111.3358261.48959842.4394328.8064.1036065.31680159.1554091.67439801.1554091 1.0728zm-.9038739-.2736c0-.29280146-.0279852-.55139888-.0839566-.7758s-.1375455-.41219924-.2447247-.5634c-.1071793-.15120075-.2387696-.26579961-.394775-.3438-.1560053-.07800039-.3328484-.117-.5305346-.117-.1929227 0-.3667886.03899961-.521603.117-.1548145.07800039-.2864049.19259925-.394775.3438-.1083701.15120076-.1917305.33899888-.2500837.5634-.0583531.22440112-.0875293.48299854-.0875293.7758v.2736c0 .29280147.0291762.55199887.0875293.7776.0583532.22560113.142309.41459924.25187.567.1095611.15240076.2423422.26759961.3983475.3456.1560054.07800039.3304668.117.5233894.117.4001359 0 .7079739-.15359846.9235233-.4608.2155494-.30720153.3233224-.75599705.3233224-1.3464zm5.9305556 2.7576h-.9038738l-2.3186329-3.7188v3.7188h-.9038738v-5.2416h.9038738l2.3257781 3.7332v-3.7332h.8967286z" fill="url(#e)"/></g></g></svg>