<svg height="47" viewBox="0 0 49 47" width="49" xmlns="http://www.w3.org/2000/svg" xmlns:xlink="http://www.w3.org/1999/xlink"><radialGradient id="a" cx="50%" cy="50%" r="50%"><stop offset="0" stop-color="#fff" stop-opacity=".01"/><stop offset="1" stop-color="#fff" stop-opacity="0"/></radialGradient><g fill="none" transform="translate(-1 -1)"><path d="m0 0h50v50h-50z" fill="url(#a)"/><path d="m24.9989025 8.75c-7.969643.00116944-14.7622644 5.9288994-16.03791535 13.9958385-1.27565099 8.0669391 3.34220065 15.8919795 10.90311225 18.475538.8124066.1527704 1.1089512-.3615562 1.1089512-.8031351 0-.39554-.0140874-1.4433155-.0219925-2.833733-4.5196199 1.006829-5.4727991-2.23346-5.4727991-2.23346-.7388279-1.9248018-1.8039966-2.4371538-1.8039966-2.4371538-1.4752235-1.0338496.1114828-1.0128566.1114828-1.0128566 1.6304888.1178514 2.4887048 1.7170549 2.4887048 1.7170549 1.4492782 2.5461715 3.8028859 1.8108995 4.728701 1.3843897.1476642-1.0767706.5675496-1.8108995 1.0316226-2.2274323-3.6079934-.4204821-7.4011499-1.8498715-7.4011499-8.2346303-.0236612-1.6552889.5751869-3.2563542 1.6722442-4.4708691-.1670218-.4215214-.7246392-2.1155048.1593192-4.4094494 0 0 1.3642473-.4480222 4.4681351 1.7080134 2.6628248-.7477061 5.4726937-.7477061 8.1355185 0 3.1020635-2.1560356 4.4637771-1.7080134 4.4637771-1.7080134.8864921 2.2939446.3287733 3.987928.1621569 4.4094494 1.0413522 1.1646915 1.6701159 2.6519674 1.6701159 4.4708691 0 6.4006594-3.7989334 7.8091599-7.4186831 8.2216396.5834611.5144307 1.1031744 1.5312364 1.1031744 3.0854402 0 2.2274323-.0202697 4.0245098-.0202697 4.5707416 0 .445528.292592.9639077 1.1172618.8011606 7.5575951-2.5886267 12.1700742-10.4143667 10.8916086-18.4791937-1.2784657-8.0648272-8.070715-13.98953-16.0387761-13.9902083z" fill="#ffffff"/></g></svg>