<svg height="47" viewBox="0 0 49 47" width="49" xmlns="http://www.w3.org/2000/svg" xmlns:xlink="http://www.w3.org/1999/xlink"><radialGradient id="a" cx="50%" cy="50%" r="50%"><stop offset="0" stop-color="#fff" stop-opacity=".01"/><stop offset="1" stop-color="#fff" stop-opacity="0"/></radialGradient><g fill="none" transform="translate(-1 -1)"><path d="m0 0h50v50h-50z" fill="url(#a)"/><path d="m10 10h30v30h-30zm7.1590892 10.0331931v8.9077014c.054816.321334-.0464797.6495787-.2728578.8841857l-2.1170007 2.5679013v.3386244h6.002873v-.3386244l-2.1170007-2.5679013c-.2280384-.2342187-.3356064-.5603003-.2916756-.8841857v-7.7037038l5.2689795 11.4944152h.6115778l4.5256771-11.4944152v9.1616698c0 .244562 0 .291593-.1599512.451499l-1.6277384 1.580247v.3386242h7.9034692v-.3386242l-1.5712849-1.542622c-.1387066-.1057304-.2075122-.2795054-.178769-.4514991v-11.3345092c-.0287432-.1719937.0400624-.3457688.178769-.4514991l1.6089204-1.542622v-.3386244h-5.5700638l-3.9705525 9.9047619-4.516268-9.9047619h-5.8429217v.3386244l1.8817783 2.2669018c.1847354.1665093.2790797.4110365.25404.6584362z" fill="#ffffff"/></g></svg>