<svg height="30" viewBox="0 0 107 30" width="107" xmlns="http://www.w3.org/2000/svg" xmlns:xlink="http://www.w3.org/1999/xlink"><linearGradient id="a"><stop offset="0" stop-color="#fff"/><stop offset="1" stop-color="#e2dbd3"/></linearGradient><linearGradient id="b" x1="100%" x2="0%" xlink:href="#a" y1="0%" y2="100%"/><linearGradient id="c" x1="100%" x2="0%" y1="0%" y2="100%"><stop offset="0" stop-color="#fcc642"/><stop offset="1" stop-color="#f7941f"/></linearGradient><radialGradient id="d" cx="82.647625%" cy="12.661137%" r="99.900788%"><stop offset="0" stop-color="#fff" stop-opacity=".15"/><stop offset="1" stop-color="#fff" stop-opacity="0"/></radialGradient><linearGradient id="e" x1="93.233165%" x2="7.593133%" xlink:href="#a" y1="13.394886%" y2="100%"/><g fill="none" fill-rule="evenodd"><rect fill="url(#b)" height="30" rx="15" width="30"/><circle cx="15" cy="15" fill="url(#c)" r="13.066406"/><circle cx="15" cy="15" fill="url(#d)" r="13.066406"/><path d="m15.5703695 9.07176702.1327555-1.16161077h.9023438l-.1327556 1.16161077h1.03125l.1327556-1.16161077h.9023437l-.1327555 1.16161077h.8629361c3.0603303 0 3.0603303 6.74789568-.5146439 6.74789568h-1.1194803l-.1273064 1.1139311h-.9023437l.1273064-1.1139311h-1.03125l-.1273064 1.1139311h-.9023438l.1273064-1.1139311h-1.7564522l-.7644544 4.9811185h-2.48188411l1.69456261-8.8177729h2.2053511l-.2535329 1.9281983h4.6904476c1.3293783 0 1.5543689-2.9865808.3238844-2.9865808-.820323 0-4.1015971 0-9.84382225 0l1.18310944-1.85285878z" fill="url(#e)"/><path d="m37 8.13h6.96c.8133374 0 1.5333302.1466652 2.16.44s1.1166649.6999974 1.47 1.22.53 1.11333.53 1.78c0 1.3733402-.6399936 2.39333-1.92 3.06.8.3600018 1.4199978.8466636 1.86 1.46.44.6133364.66 1.2999962.66 2.06 0 .7200036-.1933314 1.3633305-.58 1.93s-.9199966 1.0066651-1.6 1.32-1.453329.47-2.32.47h-7.22zm6.22 5.54c.5466694 0 .9966649-.1433319 1.35-.43s.53-.6499978.53-1.09c0-.4266688-.1766649-.7833319-.53-1.07s-.8033306-.43-1.35-.43h-3.28v3.02zm.46 5.68c.5866696 0 1.0699981-.1566651 1.45-.47s.57-.7166642.57-1.21-.1899981-.8966651-.57-1.21-.8633304-.47-1.45-.47h-3.74v3.36zm16.88-.14v2.66h-9.8v-13.74h2.96v11.08zm11.1.5h-6.12l-.88 2.16h-3.3l5.6-13.74h3.3l5.6 13.74h-3.32zm-1.02-2.5-2.04-5.02-2.04 5.02zm6.88-9.08h2.96v13.74h-2.96zm10.9 13.98c-1.1866726 0-2.2999948-.1933314-3.34-.58s-1.959996-.9533296-2.76-1.7l1.7-2.02c1.3866736 1.200006 2.8933252 1.8 4.52 1.8.7200036 0 1.2733314-.1433319 1.66-.43s.58-.6566644.58-1.11c0-.3200016-.0933324-.579999-.28-.78s-.4766647-.3699993-.87-.51-.9766628-.2966658-1.75-.47c-1.0933388-.2533346-1.9899965-.5299985-2.69-.83s-1.2533313-.716664-1.66-1.25-.61-1.2199958-.61-2.06.2133312-1.5833301.64-2.23 1.0266628-1.1499982 1.8-1.51 1.6533284-.54 2.64-.54c2.1066772 0 3.8999926.633327 5.38 1.9l-1.54 2.12c-.6133364-.4933358-1.2566633-.8699987-1.93-1.13s-1.3366634-.39-1.99-.39c-.6133364 0-1.1033315.1399986-1.47.42s-.55.6333312-.55 1.06c0 .333335.0966657.599999.29.8s.489998.3733326.89.52.9866628.3066658 1.76.48c1.0933388.2400012 1.9899965.5166651 2.69.83s1.2466647.7299974 1.64 1.25.59 1.1866626.59 2c0 .866671-.2133312 1.6299967-.64 2.29s-1.039996 1.1699982-1.84 1.53-1.7533278.54-2.86.54zm10.42-11.32v2.74h6.9v2.66h-6.9v3.02h7.62v2.66h-10.58v-13.74h10.58v2.66z" fill="#fff" fill-rule="nonzero"/></g></svg>